<?xml version="1.0" encoding="UTF-8"?>
<svg version="1.1" xmlns="http://www.w3.org/2000/svg" width="451" height="451">
<path d="M0 0 C2.25581318 0.00851158 4.50908302 -0.020375 6.76464844 -0.05200195 C28.3931347 -0.15566674 48.96335558 7.98194833 65.88964844 21.44604492 C65.88964844 22.10604492 65.88964844 22.76604492 65.88964844 23.44604492 C66.87964844 23.77604492 67.86964844 24.10604492 68.88964844 24.44604492 C68.88964844 25.10604492 68.88964844 25.76604492 68.88964844 26.44604492 C69.87964844 26.77604492 70.86964844 27.10604492 71.88964844 27.44604492 C71.88964844 28.10604492 71.88964844 28.76604492 71.88964844 29.44604492 C72.87964844 29.77604492 73.86964844 30.10604492 74.88964844 30.44604492 C76.45996094 32.22338867 76.45996094 32.22338867 78.01464844 34.38354492 C78.53285156 35.09381836 79.05105469 35.8040918 79.58496094 36.53588867 C80.88964844 38.44604492 80.88964844 38.44604492 81.88964844 40.44604492 C82.54964844 40.44604492 83.20964844 40.44604492 83.88964844 40.44604492 C85.33545393 38.45131328 86.68262499 36.45207912 88.01464844 34.38354492 C93.00025699 26.92281872 98.36318606 20.85070872 106.88964844 17.44604492 C110.16977793 16.99966035 113.39573673 16.98138247 116.70214844 17.00854492 C117.97928711 16.97857422 117.97928711 16.97857422 119.28222656 16.94799805 C128.34499662 16.95490039 136.09708608 20.50255286 142.88964844 26.44604492 C149.68837627 33.39129706 154.97143043 40.84894895 158.82714844 49.75854492 C159.1692334 50.54487305 159.51131836 51.33120117 159.86376953 52.14135742 C189.43164311 121.41387207 186.16538044 203.5738277 186.13964844 277.25854492 C186.13944828 278.52575378 186.13924812 279.79296265 186.1390419 281.09857178 C186.13673924 288.4681299 186.1259385 295.83760442 186.10316658 303.20712852 C186.09628571 305.48854906 186.09073673 307.76997402 186.08657646 310.05140114 C186.07976552 313.20488486 186.06633616 316.35826756 186.05078125 319.51171875 C186.04967252 320.43551331 186.04856379 321.35930786 186.04742146 322.31109619 C186.0174495 326.80132512 185.7997167 331.02673777 184.88964844 335.44604492 C185.89125 336.01452148 186.89285156 336.58299805 187.92480469 337.16870117 C195.07987982 341.29891033 201.40951552 345.16472298 206.88964844 351.44604492 C208.12714844 352.55979492 208.12714844 352.55979492 209.38964844 353.69604492 C222.01150458 367.58008667 225.77646055 383.92156298 225.07324219 402.08569336 C224.17546334 413.62788201 218.3097816 425.50183233 209.88964844 433.44604492 C197.35852811 443.44604492 197.35852811 443.44604492 189.88964844 443.44604492 C189.88964844 446.08604492 189.88964844 448.72604492 189.88964844 451.44604492 C64.15964844 451.44604492 -61.57035156 451.44604492 -191.11035156 451.44604492 C-191.11035156 422.72667815 -191.11035156 422.72667815 -180.61035156 411.86401367 C-163.63539195 395.44604492 -163.63539195 395.44604492 -159.11035156 395.44604492 C-160.17019732 393.29886461 -161.2328959 391.15319044 -162.29785156 389.00854492 C-162.61810303 388.36111328 -162.93835449 387.71368164 -163.26831055 387.04663086 C-164.94982457 383.6726538 -166.70099401 380.41159041 -168.67285156 377.19604492 C-175.89977408 364.28743004 -178.73706767 348.88264515 -181.11035156 334.44604492 C-181.2799791 333.42901993 -181.44960663 332.41199493 -181.62437439 331.364151 C-182.16411603 327.01257831 -182.26554097 322.78995744 -182.27148438 318.41137695 C-182.2763728 317.52838991 -182.28126123 316.64540287 -182.2862978 315.73565865 C-182.30070787 312.80838598 -182.30751566 309.88115874 -182.31347656 306.95385742 C-182.32039733 304.87554907 -182.32739252 302.79724097 -182.3344574 300.71893311 C-182.35389525 294.00296877 -182.35838569 287.28703401 -182.36035156 280.57104492 C-182.36108799 279.43283546 -182.36182442 278.29462601 -182.36258316 277.12192535 C-182.37807745 247.83214904 -182.20834786 218.58052748 -180.79785156 189.32104492 C-180.7389978 188.06003967 -180.68014404 186.79903442 -180.61950684 185.49981689 C-178.83913718 148.61297385 -175.30977627 109.82043926 -164.11035156 74.44604492 C-163.88992187 73.63522461 -163.66949219 72.8244043 -163.44238281 71.98901367 C-158.33580359 53.32678778 -149.45959829 31.95974854 -132.41503906 21.39526367 C-124.08003773 16.75533378 -113.01156341 14.74272034 -103.65722656 17.05151367 C-100.06367134 18.19333686 -97.26942573 19.33999548 -94.11035156 21.44604492 C-94.11035156 22.10604492 -94.11035156 22.76604492 -94.11035156 23.44604492 C-92.62535156 23.94104492 -92.62535156 23.94104492 -91.11035156 24.44604492 C-91.11035156 25.10604492 -91.11035156 25.76604492 -91.11035156 26.44604492 C-89.62535156 26.94104492 -89.62535156 26.94104492 -88.11035156 27.44604492 C-85.11035156 31.77937826 -85.11035156 31.77937826 -85.11035156 34.44604492 C-84.45035156 34.44604492 -83.79035156 34.44604492 -83.11035156 34.44604492 C-80.11035156 38.83066031 -80.11035156 38.83066031 -80.11035156 41.44604492 C-79.45035156 41.44604492 -78.79035156 41.44604492 -78.11035156 41.44604492 C-77.84222656 40.70354492 -77.57410156 39.96104492 -77.29785156 39.19604492 C-76.15758406 36.55542543 -75.0165485 34.59051648 -73.11035156 32.44604492 C-72.45035156 32.44604492 -71.79035156 32.44604492 -71.11035156 32.44604492 C-70.61535156 30.96104492 -70.61535156 30.96104492 -70.11035156 29.44604492 C-69.45035156 29.44604492 -68.79035156 29.44604492 -68.11035156 29.44604492 C-67.61535156 27.96104492 -67.61535156 27.96104492 -67.11035156 26.44604492 C-66.45035156 26.44604492 -65.79035156 26.44604492 -65.11035156 26.44604492 C-64.61535156 24.96104492 -64.61535156 24.96104492 -64.11035156 23.44604492 C-63.45035156 23.44604492 -62.79035156 23.44604492 -62.11035156 23.44604492 C-62.11035156 22.78604492 -62.11035156 22.12604492 -62.11035156 21.44604492 C-59.87275015 19.73991159 -57.64737538 18.17220851 -55.29785156 16.63354492 C-54.61585693 16.18358154 -53.9338623 15.73361816 -53.23120117 15.27001953 C-47.75131704 11.72322927 -42.18690113 8.84702304 -36.11035156 6.44604492 C-35.45164063 6.16374023 -34.79292969 5.88143555 -34.11425781 5.59057617 C-23.03034263 1.05101008 -11.83524731 -0.06779811 0 0 Z " fill="#0A0301" transform="translate(224.1103515625,-0.446044921875)"/>
<path d="M0 0 C6.59521866 3.65755964 11.14915162 8.10407464 15.0625 14.5 C15.44962158 15.12156982 15.83674316 15.74313965 16.2355957 16.38354492 C29.84153501 38.49640997 34.9946803 63.54993481 38.60546875 88.94921875 C39.22819722 93.24556244 40.04014425 97.43836732 41.0246582 101.66430664 C45.84582879 123.45243197 46.47127305 146.29681726 47.046875 168.51953125 C47.06812313 169.32898886 47.08937126 170.13844646 47.11126328 170.97243309 C47.71395585 194.76071136 47.65161582 218.55659938 47.63037109 242.35083008 C47.62456215 248.92645014 47.62804088 255.50203037 47.63394356 262.07764912 C47.63753939 267.18263557 47.63641706 272.28761237 47.63381577 277.39259911 C47.6331495 279.82198275 47.63396442 282.25136728 47.63629532 284.68074989 C47.63881755 288.03369155 47.63499254 291.3865654 47.62939453 294.73950195 C47.63141876 295.73702484 47.63344299 296.73454773 47.63552856 297.76229858 C47.63270874 298.66790024 47.62988892 299.57350189 47.62698364 300.50654602 C47.6264181 301.68881256 47.6264181 301.68881256 47.62584114 302.89496326 C47.5 304.8125 47.5 304.8125 46.5 306.8125 C45.52643555 306.60137573 45.52643555 306.60137573 44.53320312 306.38598633 C37.29800564 304.92957548 30.36949351 304.47739419 23 304.5 C21.94941406 304.48388672 20.89882813 304.46777344 19.81640625 304.45117188 C12.6076905 304.44671655 6.34558471 305.56661117 -0.5 307.8125 C-0.4278125 306.86890625 -0.355625 305.9253125 -0.28125 304.953125 C2.0494715 286.60958123 2.0494715 286.60958123 -4.59765625 270.34765625 C-6.19468087 268.62079223 -7.79622872 266.8981 -9.40234375 265.1796875 C-14.11437141 259.86220377 -15.0335456 254.71505984 -14.87109375 247.69140625 C-14.48099326 244.66504774 -13.66418727 242.31310733 -12.5 239.5 C-9.90512044 233.07282499 -9.58955105 226.66137273 -10.5 219.8125 C-11.87962516 216.5728788 -13.0122819 214.3002181 -15.5 211.8125 C-17.60417968 211.45610439 -17.60417968 211.45610439 -19.9375 211.5 C-20.71996094 211.48324219 -21.50242187 211.46648437 -22.30859375 211.44921875 C-25.07376655 211.90761638 -25.81392992 212.59832176 -27.5 214.8125 C-28.31734706 216.41460886 -29.08505309 218.04262006 -29.8125 219.6875 C-33.43227959 227.02259588 -37.84311184 229.50060468 -44.9375 233.125 C-50.87389241 236.21842227 -54.49506575 239.54887212 -58.5 244.8125 C-59.48385548 245.82838798 -60.47908024 246.83386685 -61.5 247.8125 C-61.809375 246.843125 -62.11875 245.87375 -62.4375 244.875 C-63.19523342 241.97184208 -63.19523342 241.97184208 -64.5 240.8125 C-67.78743547 240.14326238 -67.78743547 240.14326238 -71.5 240.8125 C-75.37519127 243.74797976 -77.46237678 247.23383978 -78.6875 251.875 C-79.62281982 254.79297381 -80.26777529 255.66035278 -82.87890625 257.37109375 C-84.81899225 258.34509611 -86.76313717 259.31104903 -88.7109375 260.26953125 C-96.54451026 264.60323047 -100.76282277 272.53310442 -103.5 280.8125 C-105.61421685 290.15681645 -103.76602188 297.77001383 -99.25 306.0625 C-97.78540497 308.84579171 -97.49933375 309.77785483 -97.5625 313.0625 C-98.51073455 315.84398803 -99.69852644 317.52770426 -101.5 319.8125 C-102.49 319.33039063 -103.48 318.84828125 -104.5 318.3515625 C-105.83314765 317.71315377 -107.16649161 317.07515487 -108.5 316.4375 C-109.14839844 316.12039063 -109.79679687 315.80328125 -110.46484375 315.4765625 C-118.58251012 311.61866165 -126.82399739 309.19428694 -135.6875 312 C-140.51172174 313.72708799 -145.206307 315.76913834 -149.8984375 317.82421875 C-152.5 318.8125 -152.5 318.8125 -155.5 318.8125 C-155.24605469 318.30203125 -154.99210938 317.7915625 -154.73046875 317.265625 C-149.37926573 305.96196019 -145.51514761 292.26453257 -149.4140625 279.91796875 C-152.46742177 273.50591428 -156.73193025 267.58056975 -161.75 262.5625 C-164.58386132 259.72863868 -165.38653076 257.73916544 -165.875 253.75 C-165.36427798 248.38741879 -163.51194456 243.77948813 -161.5 238.8125 C-161.06171875 239.18761719 -160.6234375 239.56273437 -160.171875 239.94921875 C-148.49366854 249.37248697 -136.07094421 251.74091414 -121.5 250.8125 C-111.18211398 249.41630433 -102.87673863 242.95280955 -96.25 235.1875 C-91.74225299 229.22684279 -88.61617258 222.57069928 -85.5 215.8125 C-82.42401673 216.97780424 -79.93453898 218.16853101 -77.125 219.9375 C-70.33072801 223.36037187 -61.86482184 222.86812267 -54.625 221.1171875 C-44.82880118 217.47422606 -35.63646501 211.17297451 -30.4375 201.921875 C-26.03815736 192.19255955 -26.02970677 180.12235039 -29.515625 170.125 C-32.07045042 164.12318789 -35.20422312 158.74468827 -39.5 153.8125 C-37.40845983 151.60476315 -35.25577484 149.90144999 -32.75 148.1875 C-25.74946148 142.9789962 -20.68343035 136.31002641 -18.5 127.8125 C-18.09844068 124.34200371 -18.0794737 120.92785001 -18.125 117.4375 C-18.10759766 116.11492187 -18.10759766 116.11492187 -18.08984375 114.765625 C-18.12839493 106.00165651 -20.03937626 98.2901401 -24.9375 90.9375 C-25.51371094 90.05320312 -26.08992187 89.16890625 -26.68359375 88.2578125 C-28.39190793 85.76386657 -28.39190793 85.76386657 -30.6484375 83.99609375 C-33.28674941 80.88466683 -33.37354873 77.66909956 -33.6875 73.75 C-34.17216758 68.20435014 -34.17216758 68.20435014 -35.5 62.8125 C-35.57485153 60.87883545 -35.64590996 58.9448767 -35.68945312 57.01025391 C-35.97779011 45.94881011 -38.44548664 36.22261438 -42.21264648 25.8503418 C-42.60421384 23.07344057 -41.78981144 22.04447926 -40.25390625 19.73046875 C-39.74537109 18.96283203 -39.23683594 18.19519531 -38.71289062 17.40429688 C-38.16826172 16.61087891 -37.62363281 15.81746094 -37.0625 15 C-36.55267578 14.21818359 -36.04285156 13.43636719 -35.51757812 12.63085938 C-27.02845595 0.03918745 -15.23103334 -7.39528103 0 0 Z " fill="#F3A900" transform="translate(353.5,27.1875)"/>
<path d="M0 0 C5.95690639 4.29879842 9.86888414 10.58535982 13.89453125 16.6171875 C14.30501709 17.21966309 14.71550293 17.82213867 15.13842773 18.44287109 C17.93074763 22.76906843 17.93074763 22.76906843 17.765625 25.49609375 C17.47816406 26.11355469 17.19070312 26.73101562 16.89453125 27.3671875 C12.95176222 36.70352802 12.15875786 45.4921132 11.57836914 55.55737305 C11.2583668 60.86207421 10.80010998 65.3582377 8.89453125 70.3671875 C8.78697922 71.82289177 8.72059639 73.28257853 8.70703125 74.7421875 C8.25618725 79.65228849 6.08163397 81.8203699 2.7421875 85.26953125 C-4.41028457 93.38977967 -6.4627393 103.87296986 -6.41796875 114.3671875 C-6.43408203 115.12257813 -6.45019531 115.87796875 -6.46679688 116.65625 C-6.47474641 125.9095087 -2.81197438 133.20426512 2.89453125 140.3671875 C5.98650483 143.44603168 9.26839617 145.94976411 12.89453125 148.3671875 C11.4050698 151.59064884 9.55251703 154.31811014 7.45703125 157.1796875 C0.22024224 167.41049109 -1.44492436 177.95169533 -0.10546875 190.3671875 C2.23390442 199.87772329 7.44573088 208.03776283 15.8671875 213.18359375 C25.14521368 217.95482159 34.24818403 221.63435618 44.6875 218.5390625 C48.53093903 217.01758294 52.20772906 215.23158405 55.89453125 213.3671875 C55.34354495 219.84127648 53.91625001 226.27420179 49.23828125 231.0625 C45.55790187 233.94345271 41.59051021 236.08282104 37.45703125 238.2421875 C32.51025471 240.83270001 28.67820455 243.95944511 24.671875 247.828125 C22.89453125 249.3671875 22.89453125 249.3671875 20.89453125 249.3671875 C20.60578125 248.7278125 20.31703125 248.0884375 20.01953125 247.4296875 C19.06629674 245.21512671 19.06629674 245.21512671 16.89453125 244.3671875 C13.0149155 244.00118601 10.64474165 243.94846541 7.20703125 245.8671875 C3.89648458 249.44615687 1.39196363 253.63884626 0.5078125 258.48828125 C-0.10546875 260.3671875 -0.10546875 260.3671875 -1.671875 261.46484375 C-2.33058594 261.78324219 -2.98929687 262.10164063 -3.66796875 262.4296875 C-12.40749339 267.54474142 -17.02880612 277.05028823 -20.10546875 286.3671875 C-20.43546875 287.3571875 -20.76546875 288.3471875 -21.10546875 289.3671875 C-21.84312698 297.48142805 -19.28173645 304.67286647 -15.88671875 311.99609375 C-14.81150552 315.25936591 -16.0509753 317.12575769 -17.3671875 320.1640625 C-18.60403055 323.85495921 -18.3457504 327.52268118 -18.10546875 331.3671875 C-18.98847656 331.39296875 -19.87148437 331.41875 -20.78125 331.4453125 C-36.95190151 332.20955382 -47.10218542 337.63035195 -58.10546875 349.3671875 C-69.56476606 325.89083948 -72.58750228 304.06665601 -72.43359375 278.1171875 C-72.43052171 275.80680465 -72.42865661 273.49641993 -72.42791748 271.18603516 C-72.4233453 266.36190591 -72.40905654 261.53794641 -72.38671875 256.71386719 C-72.35869084 250.64189235 -72.34761283 244.57005034 -72.342906 238.49801731 C-72.26109886 142.54491717 -72.26109886 142.54491717 -65.62890625 101.61035156 C-65.12157215 98.46696248 -64.6420102 95.32043419 -64.16796875 92.171875 C-59.46589984 61.64178382 -53.36523981 24.23393121 -28.55859375 3.09765625 C-20.05768713 -2.8990024 -9.33283904 -5.3383103 0 0 Z " fill="#F4A900" transform="translate(123.10546875,26.6328125)"/>
<path d="M0 0 C2.58861743 2.58861743 3.34611936 5.15576067 4.6875 8.5625 C6.95976735 14.14392239 9.6054742 18.63943269 13.58203125 23.23046875 C15 25 15 25 16 28 C17.31395033 28.70409996 18.65039838 29.36691415 20 30 C21.15283272 31.0107775 22.27605045 32.05588619 23.375 33.125 C32.49945033 41.25067005 43.60984553 45.95782689 55 50 C55.81210938 50.34160156 56.62421875 50.68320313 57.4609375 51.03515625 C84.6932777 61.38344552 119.90936309 57.40024916 146.0546875 45.8515625 C164.97590523 37.14324301 178.35367527 25.07861161 187 6 C187.66043309 4.66356805 188.3245513 3.32890605 189 2 C195.83325575 8.29301972 198.21053094 16.06790752 198.59765625 25.17700195 C198.68512344 33.20758321 198.27581378 39.56533695 193 46 C192.071875 47.36125 192.071875 47.36125 191.125 48.75 C185.4255036 54.78476089 178.52754207 57.80113493 171 61 C171.29982616 62.94607795 171.29982616 62.94607795 172 65 C173.99284138 66.3440093 175.99419671 67.67541292 178 69 C184.75265182 74.8703958 188.20642164 83.42424946 189.44921875 92.15625 C189.7677588 100.67994232 187.59667328 107.97072532 182.375 114.75 C175.91383477 121.56564313 168.45846909 124.87390334 159.1875 125.9453125 C152.7387821 126.05595227 147.90640535 124.62838791 143 120.4375 C142.34 119.633125 141.68 118.82875 141 118 C139.16116119 115.71271266 139.16116119 115.71271266 136.375 115.875 C135.59125 115.91625 134.8075 115.9575 134 116 C133.50371094 117.19496094 133.00742187 118.38992187 132.49609375 119.62109375 C126.79203067 133.08194697 119.9317844 146.4007337 106 153 C95.24571117 155.21641366 83.42250114 155.58329306 73.85546875 149.67578125 C69.57938003 146.65316566 65.78398392 143.47124691 63 139 C62.59493447 136.16040796 62.43698376 133.36414424 62.30078125 130.5 C62.17970678 127.80770489 62.17970678 127.80770489 60.125 125.375 C57.95770294 123.84707986 57.95770294 123.84707986 55 123 C54.05078125 120.93359375 54.05078125 120.93359375 53.3125 118.4375 C53.06113281 117.61121094 52.80976563 116.78492188 52.55078125 115.93359375 C52.36902344 115.29550781 52.18726563 114.65742188 52 114 C49.03 113.505 49.03 113.505 46 113 C45.73574219 113.60328125 45.47148437 114.2065625 45.19921875 114.828125 C43.05151742 118.71777302 40.11814402 120.46850867 36 122 C26.72335303 123.30017521 18.66650317 122.58424305 11 117 C4.46337369 111.66838654 0.64826132 105.94478397 -2 98 C-3.07294622 87.34717686 -1.27924659 78.74951214 5.16015625 70.09765625 C8.80957727 65.85116802 11.58845752 62.77208962 17 61 C16.85980949 58.56953237 16.85980949 58.56953237 16 56 C13.9526643 54.52489734 13.9526643 54.52489734 11.375 53.5625 C2.23261321 49.36300136 -2.71747753 43.68022118 -7.11328125 34.734375 C-8.24395658 31.24771099 -8.38357884 27.94220886 -8.375 24.3125 C-8.37338867 23.60496582 -8.37177734 22.89743164 -8.37011719 22.16845703 C-8.16955262 13.54614702 -5.06284984 6.8710105 0 0 Z " fill="#77463D" transform="translate(131,117)"/>
<path d="M0 0 C0.91168945 0.41233887 1.82337891 0.82467773 2.76269531 1.24951172 C5.33547698 2.42989399 7.88875473 3.64373231 10.4375 4.875 C11.60667969 5.431875 12.77585938 5.98875 13.98046875 6.5625 C18.27550184 8.84326793 20.05129591 9.85682559 21.8125 14.5 C21.35950252 18.57697728 20.28420089 19.11456277 17.4375 21.875 C16.35354398 25.28739564 16.35354398 25.28739564 17.4375 28.875 C22.62074511 33.61396696 27.98219859 36.17669465 35.05078125 36.01171875 C44.14838494 35.49057942 52.22028654 33.07919701 60.75 30 C61.69311035 29.66033203 62.6362207 29.32066406 63.60791016 28.97070312 C68.88548257 27.00669425 73.59228916 24.72964205 78.4375 21.875 C79.0975 21.875 79.7575 21.875 80.4375 21.875 C80.39109375 23.08414062 80.3446875 24.29328125 80.296875 25.5390625 C79.79877628 44.07898126 83.83999091 58.77778745 96.4375 72.875 C96.4375 73.535 96.4375 74.195 96.4375 74.875 C61.4198918 91.72647698 20.50512788 93.30577378 -17.6875 93.1875 C-18.94219086 93.18534485 -20.19688171 93.1831897 -21.48959351 93.18096924 C-68.55828788 93.05125281 -122.53083638 88.77850828 -157.9375 53.9375 C-162.97281201 48.7934465 -168.2390878 43.28971308 -171.5625 36.875 C-171.1906307 31.40025754 -166.52258816 26.78801181 -162.7734375 23.12890625 C-153.86763044 15.78069919 -143.19580815 15.05538214 -132.09375 16.109375 C-130.24561811 16.33063023 -128.40298034 16.59719165 -126.5625 16.875 C-126.5625 20.875 -126.5625 20.875 -128.5625 23.1875 C-131.10227731 26.60032576 -130.88837438 28.72010167 -130.5625 32.875 C-115.91144656 39.00927284 -102.01078763 37.15144381 -87.4375 31.25 C-79.99440056 27.83752096 -73.32603969 23.44821189 -66.5625 18.875 C-58.58917157 13.52937387 -50.41353843 9.04890786 -41.75976562 4.92626953 C-40.25670077 4.2071365 -38.758169 3.47847233 -37.26367188 2.74169922 C-34.93597658 1.59677987 -32.59548713 0.4829422 -30.25 -0.625 C-29.54609131 -0.97554443 -28.84218262 -1.32608887 -28.11694336 -1.68725586 C-18.19622324 -6.25357131 -9.58215202 -4.47486855 0 0 Z " fill="#FDFBF3" transform="translate(241.5625,349.125)"/>
<path d="M0 0 C1.76512939 0.00241699 1.76512939 0.00241699 3.56591797 0.00488281 C16.2901746 0.18274689 28.51994035 2.19874445 39.8125 8.375 C40.75351562 8.87902344 41.69453125 9.38304687 42.6640625 9.90234375 C49.60909587 13.77925478 55.81666092 18.1548464 61.8125 23.375 C62.42609375 23.89320312 63.0396875 24.41140625 63.671875 24.9453125 C76.57939343 36.72786373 83.63512796 54.30087577 85.06640625 71.41015625 C85.48173525 82.0077445 81.92811904 88.90047939 75.21875 96.94921875 C70.95238616 101.25021216 66.01849883 104.32810573 60.8125 107.375 C60.14605469 107.77332031 59.47960937 108.17164062 58.79296875 108.58203125 C30.96820965 123.79774919 -9.46828537 124.47449738 -39.21191406 115.96191406 C-56.35640152 110.86856905 -73.11586185 103.63358694 -82.1875 87.375 C-87.06437798 75.9847078 -85.14150071 61.06179235 -80.7890625 49.828125 C-73.6536687 34.44351983 -63.3812942 22.60926669 -49.1875 13.375 C-48.38828125 12.83230469 -47.5890625 12.28960937 -46.765625 11.73046875 C-32.4952278 2.51999997 -16.70241296 -0.02402879 0 0 Z " fill="#E40012" transform="translate(226.1875,7.625)"/>
<path d="M0 0 C1.00160156 0.40089844 2.00320313 0.80179687 3.03515625 1.21484375 C17.81550368 7.79448228 29.10489702 20.3089475 35.0546875 35.203125 C38.33352816 44.9041577 37.8171371 56.1335314 33.5 65.4375 C26.99320094 76.80126992 17.70434423 83.36507325 5.2578125 87.1328125 C-10.6133007 90.84052426 -26.73485598 88.10112437 -40.61108398 79.83691406 C-53.72547495 71.58366548 -63.73692851 59.80015329 -67.6015625 44.4921875 C-69.4604013 32.86533307 -67.55656653 22.66403608 -60.6484375 13.09375 C-46.20446962 -5.25214285 -20.95284041 -8.87643571 0 0 Z " fill="#E7E7E6" transform="translate(400,346)"/>
<path d="M0 0 C0.66 0 1.32 0 2 0 C4.73579938 6.49752353 5.367322 12.63679605 2.69140625 19.21875 C1.60652496 21.44574853 0.51277467 23.66844859 -0.58984375 25.88671875 C-3.03405154 31.28293374 -3.24726949 35.69215142 -2.625 41.5 C-0.57869652 45.90742289 2.31172805 48.43054904 5.80859375 51.7421875 C12.29352019 58.42362686 14.06667128 67.27027825 14.3125 76.3125 C14.03558079 89.66615956 9.01263378 100.97407563 -0.125 110.75 C-15.84488027 125.43428005 -37.85343143 132.09738816 -58.8984375 134.1171875 C-61 134 -61 134 -64 132 C-63.690625 131.443125 -63.38125 130.88625 -63.0625 130.3125 C-61.85154487 127.67689178 -61.13569383 125.91741742 -61 123 C-62.93341871 118.74647884 -64.76636711 116.11601395 -68.3125 113.125 C-70.2699581 111.2858769 -70.94731207 110.50276789 -71.23046875 107.80078125 C-70.81463545 103.5367279 -69.64412559 99.94590142 -68 96 C-67.5 93.5 -67.5 93.5 -68 91 C-69.27358732 89.28724465 -70.61423077 87.62332967 -72 86 C-75.83129227 80.38989347 -75.88028649 74.55773054 -75 68 C-73.69778282 64.10831648 -72.00492511 60.57497914 -70 57 C-69.53207031 56.11183594 -69.06414062 55.22367187 -68.58203125 54.30859375 C-66.89840373 51.85174471 -65.74615734 51.04164589 -63 50 C-63.03480469 51.53720703 -63.03480469 51.53720703 -63.0703125 53.10546875 C-63.08908036 54.46613851 -63.10727947 55.8268162 -63.125 57.1875 C-63.14175781 57.86103516 -63.15851563 58.53457031 -63.17578125 59.22851562 C-63.21514783 63.26359021 -63.14422165 66.52722602 -61 70 C-58.33694246 71.68416671 -58.33694246 71.68416671 -55.1875 72.9375 C-49.97594573 75.38412189 -47.0096008 77.0843187 -44 82 C-42.01401464 87.6557409 -41.59271415 92.97303932 -41.375 98.9375 C-41.31699219 100.24944336 -41.31699219 100.24944336 -41.2578125 101.58789062 C-41.1643893 103.72494631 -41.08114602 105.86244294 -41 108 C-36.14814966 102.6584375 -36.14814966 102.6584375 -32.6875 96.375 C-32.38199219 95.66085937 -32.07648438 94.94671875 -31.76171875 94.2109375 C-27.79506476 82.69747001 -29.44654981 69.14832336 -32 57.5 C-35.70235613 40.55547442 -35.70235613 40.55547442 -32.94140625 34.7890625 C-31.625 32.8125 -31.625 32.8125 -29 30 C-28.34 30 -27.68 30 -27 30 C-27 29.34 -27 28.68 -27 28 C-26.13117188 27.60167969 -25.26234375 27.20335937 -24.3671875 26.79296875 C-22.63855469 25.99826172 -22.63855469 25.99826172 -20.875 25.1875 C-19.73804688 24.66542969 -18.60109375 24.14335937 -17.4296875 23.60546875 C-16.29789063 23.07566406 -15.16609375 22.54585938 -14 22 C-12.93523437 21.55785156 -11.87046875 21.11570312 -10.7734375 20.66015625 C-7.35027564 18.61108049 -6.41028786 16.84424955 -4.75 13.25 C-4.25757813 12.1878125 -3.76515625 11.125625 -3.2578125 10.03125 C-1.87490106 6.69851932 -0.79867455 3.51416804 0 0 Z " fill="#E8572B" transform="translate(184,245)"/>
<path d="M0 0 C0.66 0 1.32 0 2 0 C4.73579938 6.49752353 5.367322 12.63679605 2.69140625 19.21875 C1.60652496 21.44574853 0.51277467 23.66844859 -0.58984375 25.88671875 C-3.03405154 31.28293374 -3.24726949 35.69215142 -2.625 41.5 C-0.57869652 45.90742289 2.31172805 48.43054904 5.80859375 51.7421875 C12.29352019 58.42362686 14.06667128 67.27027825 14.3125 76.3125 C14.16226393 84.94606591 12.68267808 93.24222066 7 100 C5.04661271 101.7060151 3.05484169 103.3600212 1.05859375 105.015625 C-1.17854165 107.17210466 -2.6161519 109.3634725 -4.25 112 C-13.24847242 125.4162745 -33.01022227 129.59197455 -48.03320312 132.63183594 C-59.75964334 134.82690444 -59.75964334 134.82690444 -64 132 C-63.690625 131.443125 -63.38125 130.88625 -63.0625 130.3125 C-61.85154487 127.67689178 -61.13569383 125.91741742 -61 123 C-62.93341871 118.74647884 -64.76636711 116.11601395 -68.3125 113.125 C-70.2699581 111.2858769 -70.94731207 110.50276789 -71.23046875 107.80078125 C-70.81463545 103.5367279 -69.64412559 99.94590142 -68 96 C-67.5 93.5 -67.5 93.5 -68 91 C-69.27358732 89.28724465 -70.61423077 87.62332967 -72 86 C-75.83129227 80.38989347 -75.88028649 74.55773054 -75 68 C-73.69778282 64.10831648 -72.00492511 60.57497914 -70 57 C-69.53207031 56.11183594 -69.06414062 55.22367187 -68.58203125 54.30859375 C-66.89840373 51.85174471 -65.74615734 51.04164589 -63 50 C-63.03480469 51.53720703 -63.03480469 51.53720703 -63.0703125 53.10546875 C-63.08908036 54.46613851 -63.10727947 55.8268162 -63.125 57.1875 C-63.14175781 57.86103516 -63.15851563 58.53457031 -63.17578125 59.22851562 C-63.21514783 63.26359021 -63.14422165 66.52722602 -61 70 C-58.33694246 71.68416671 -58.33694246 71.68416671 -55.1875 72.9375 C-49.97594573 75.38412189 -47.0096008 77.0843187 -44 82 C-42.01401464 87.6557409 -41.59271415 92.97303932 -41.375 98.9375 C-41.31699219 100.24944336 -41.31699219 100.24944336 -41.2578125 101.58789062 C-41.1643893 103.72494631 -41.08114602 105.86244294 -41 108 C-36.14814966 102.6584375 -36.14814966 102.6584375 -32.6875 96.375 C-32.38199219 95.66085937 -32.07648438 94.94671875 -31.76171875 94.2109375 C-27.79506476 82.69747001 -29.44654981 69.14832336 -32 57.5 C-35.70235613 40.55547442 -35.70235613 40.55547442 -32.94140625 34.7890625 C-31.625 32.8125 -31.625 32.8125 -29 30 C-28.34 30 -27.68 30 -27 30 C-27 29.34 -27 28.68 -27 28 C-26.13117188 27.60167969 -25.26234375 27.20335937 -24.3671875 26.79296875 C-22.63855469 25.99826172 -22.63855469 25.99826172 -20.875 25.1875 C-19.73804688 24.66542969 -18.60109375 24.14335937 -17.4296875 23.60546875 C-16.29789062 23.07566406 -15.16609375 22.54585938 -14 22 C-12.93523437 21.55785156 -11.87046875 21.11570312 -10.7734375 20.66015625 C-7.35027564 18.61108049 -6.41028786 16.84424955 -4.75 13.25 C-4.25757813 12.1878125 -3.76515625 11.125625 -3.2578125 10.03125 C-1.87490106 6.69851932 -0.79867455 3.51416804 0 0 Z " fill="#E8572B" transform="translate(333,243)"/>
<path d="M0 0 C0.33 0 0.66 0 1 0 C1.48065853 17.27700382 -2.64665854 29.08404778 -14.6953125 41.8828125 C-36.38274553 61.8058442 -66.65155063 68.38696077 -95.33105469 67.17285156 C-106.58608747 66.44393067 -117.51434508 64.178192 -128 60 C-128.62116699 59.75765625 -129.24233398 59.5153125 -129.88232422 59.265625 C-149.0064597 51.72136851 -164.26121386 39.96316593 -173 21 C-175.22041383 14.44977922 -175.26263697 7.85774308 -175 1 C-171.47299365 2.17566878 -171.18494902 2.93869132 -169.1875 5.9375 C-162.51805544 14.80177239 -152.303352 21.16286734 -142 25 C-141.19457764 25.30921387 -140.38915527 25.61842773 -139.55932617 25.93701172 C-122.70511443 32.2711669 -105.84414263 34.47874187 -87.9375 34.4375 C-87.21199951 34.43754028 -86.48649902 34.43758057 -85.73901367 34.43762207 C-71.99742499 34.39325419 -58.18096218 33.52884722 -45 29.375 C-44.16605713 29.11702637 -43.33211426 28.85905273 -42.47290039 28.59326172 C-26.51678526 23.44024369 -11.57079465 15.60613805 -1.4609375 1.90625 C-0.97882813 1.2771875 -0.49671875 0.648125 0 0 Z " fill="#E20012" transform="translate(313,100)"/>
<path d="M0 0 C3.41031591 1.11830153 5.04691555 2.83597799 7.58203125 5.3671875 C12.40571994 9.96054999 17.3757969 13.48955499 23.13647461 16.82226562 C27.37910956 19.35888959 27.37910956 19.35888959 28.65625 21.8046875 C28.64073876 24.5346653 27.87256118 26.46991354 26.83203125 28.9921875 C24.60466422 34.41184591 23.86199203 38.77988362 22.64453125 44.8671875 C6.14453125 44.8671875 -10.35546875 44.8671875 -27.35546875 44.8671875 C-29.70460882 37.81976729 -29.52554316 28.39883943 -26.37890625 21.5859375 C-21.95116908 14.15004301 -15.1115061 9.10059554 -8.35546875 3.8671875 C-7.73929688 3.37347656 -7.123125 2.87976563 -6.48828125 2.37109375 C-4.22789403 0.6787313 -2.86193688 -0.16136958 0 0 Z " fill="#F69612" transform="translate(75.35546875,406.1328125)"/>
<path d="M0 0 C3.50625253 0.60409679 6.54547369 1.53885384 9.8125 2.9375 C13.46103966 4.43130563 16.98676626 5.63575918 20.828125 6.50390625 C22.45061138 6.87451015 24.06414657 7.28470588 25.671875 7.71484375 C32.36660238 9.49479111 39.00186654 10.67942296 45.87109375 11.5703125 C47.72017895 11.8242443 49.56578685 12.1166196 51.39379883 12.4934082 C71.06829396 16.31772459 92.20654518 15.19372352 112.125 15.1875 C113.97188416 15.1887236 113.97188416 15.1887236 115.8560791 15.18997192 C143.72158936 15.29162908 143.72158936 15.29162908 171.375 12.25 C172.41809326 12.07662109 173.46118652 11.90324219 174.53588867 11.72460938 C188.94547805 9.24958393 203.26892749 6.08874116 217 1 C218.17407021 3.26727333 219.33939739 5.53834624 220.5 7.8125 C220.83386719 8.45509766 221.16773438 9.09769531 221.51171875 9.75976562 C223.00239084 12.69547699 224 14.66126517 224 18 C148.43 18 72.86 18 -5 18 C-3.875 9 -3.875 9 -1.9375 4.5 C-1.57527344 3.6440625 -1.21304688 2.788125 -0.83984375 1.90625 C-0.56269531 1.2771875 -0.28554687 0.648125 0 0 Z " fill="#3AA513" transform="translate(116,433)"/>
<path d="M0 0 C1.2065625 0.0309375 1.2065625 0.0309375 2.4375 0.0625 C8.94806893 11.92563153 11.61504723 23.53390407 11.625 37 C11.63724609 37.86818359 11.64949219 38.73636719 11.66210938 39.63085938 C11.67392586 44.84193096 11.13529129 49.13018142 9.4375 54.0625 C7.0625 54.6875 7.0625 54.6875 4.4375 55.0625 C3.7775 54.4025 3.1175 53.7425 2.4375 53.0625 C2.62738415 51.13027227 2.83061715 49.19778122 3.12255859 47.27832031 C5.03655461 33.81209718 2.59048674 22.07416695 -2.3125 9.5 C-3.45100392 6.36911421 -3.96006059 4.34237486 -3.5625 1.0625 C-2.5625 0.0625 -2.5625 0.0625 0 0 Z " fill="#130701" transform="translate(347.5625,58.9375)"/>
<path d="M0 0 C1.12349715 3.37049145 0.99748444 5.77269957 0.875 9.3125 C0.83811211 17.64916378 3.73692286 21.72443278 8.640625 28.12109375 C13.00967838 34.15992903 13.1306015 41.1562414 13.0625 48.375 C13.05347656 49.62023437 13.04445312 50.86546875 13.03515625 52.1484375 C13.02355469 53.08945312 13.01195312 54.03046875 13 55 C12.34 54.67 11.68 54.34 11 54 C10.71125 52.783125 10.4225 51.56625 10.125 50.3125 C8.26332008 42.47677258 3.35590983 38.33753718 -2.66015625 33.34375 C-6.63712022 29.36014669 -8.42908813 25.36912716 -8.4375 19.75 C-8.23812834 12.79097972 -6.3061307 6.69048582 -1.75 1.375 C-1.1725 0.92125 -0.595 0.4675 0 0 Z " fill="#EB4335" transform="translate(136,275)"/>
<path d="M0 0 C1.12349715 3.37049145 0.99748444 5.77269957 0.875 9.3125 C0.83811211 17.64916378 3.73692286 21.72443278 8.640625 28.12109375 C13.00967838 34.15992903 13.1306015 41.1562414 13.0625 48.375 C13.05347656 49.62023437 13.04445313 50.86546875 13.03515625 52.1484375 C13.02355469 53.08945312 13.01195312 54.03046875 13 55 C12.34 54.67 11.68 54.34 11 54 C10.71125 52.783125 10.4225 51.56625 10.125 50.3125 C8.26332008 42.47677258 3.35590983 38.33753718 -2.66015625 33.34375 C-6.63712022 29.36014669 -8.42908813 25.36912716 -8.4375 19.75 C-8.23812834 12.79097972 -6.3061307 6.69048582 -1.75 1.375 C-1.1725 0.92125 -0.595 0.4675 0 0 Z " fill="#EB4335" transform="translate(285,273)"/>
<path d="M0 0 C1.10794922 0.67095703 1.10794922 0.67095703 2.23828125 1.35546875 C18.77848646 11.21233818 33.83672538 15.21172346 53 16 C53 17.65 53 19.3 53 21 C38.15 21 23.3 21 8 21 C2 6 2 6 0 0 Z " fill="#F19312" transform="translate(346,430)"/>
<path d="M0 0 C2.625 -0.375 2.625 -0.375 5 0 C5.33 0.33 5.66 0.66 6 1 C5.78954097 5.7353282 4.50200888 9.40234991 2.625 13.75 C-3.0341668 27.10235297 -3.3708648 38.62756255 -3 53 C-5.475 53.495 -5.475 53.495 -8 54 C-11.55010271 49.38205636 -11.43328252 45.38590592 -11.3125 39.8125 C-11.29977051 38.9575293 -11.28704102 38.10255859 -11.27392578 37.22167969 C-10.97737072 24.3644249 -7.57277856 10.66616821 0 0 Z " fill="#120600" transform="translate(104,53)"/>
<path d="M0 0 C3 0.5 3 0.5 4.875 2.0625 C6.42190908 5.41413635 6.39126176 7.84822358 6 11.5 C4.875 13.9375 4.875 13.9375 3 15.5 C0 16.0625 0 16.0625 -3 15.5 C-5.36364152 12.82120628 -5.9420981 10.9728655 -6.375 7.4375 C-5.7818241 2.79095541 -4.75899559 0.79316593 0 0 Z " fill="#E61120" transform="translate(226,392.5)"/>
<path d="M0 0 C1.06671952 3.20015856 0.94845472 4.88544294 0.5625 8.1875 C0.46066406 9.08855469 0.35882813 9.98960937 0.25390625 10.91796875 C0.12822266 11.94857422 0.12822266 11.94857422 0 13 C-0.66 12.34 -1.32 11.68 -2 11 C-2 10.01 -2 9.02 -2 8 C-2.66 8 -3.32 8 -4 8 C-4.33 8.66 -4.66 9.32 -5 10 C-4.56802365 5.2482602 -3.67230705 3.07999946 0 0 Z " fill="#D82E45" transform="translate(136,275)"/>
<path d="M0 0 C1.06671952 3.20015856 0.94845472 4.88544294 0.5625 8.1875 C0.46066406 9.08855469 0.35882813 9.98960937 0.25390625 10.91796875 C0.12822266 11.94857422 0.12822266 11.94857422 0 13 C-0.66 12.34 -1.32 11.68 -2 11 C-2 10.01 -2 9.02 -2 8 C-2.66 8 -3.32 8 -4 8 C-4.33 8.66 -4.66 9.32 -5 10 C-4.56802365 5.2482602 -3.67230705 3.07999946 0 0 Z " fill="#D82E45" transform="translate(285,273)"/>
<path d="M0 0 C0.66 0 1.32 0 2 0 C1.67 5.28 1.34 10.56 1 16 C0.67 16 0.34 16 0 16 C-0.19389096 13.5211787 -0.38040123 11.04219069 -0.5625 8.5625 C-0.61857422 7.85544922 -0.67464844 7.14839844 -0.73242188 6.41992188 C-0.86190993 4.61572163 -0.93521608 2.80768048 -1 1 C-0.67 0.67 -0.34 0.34 0 0 Z " fill="#B9B8B2" transform="translate(320,371)"/>
<path d="M0 0 C0 1.65 0 3.3 0 5 C-1.65 5.33 -3.3 5.66 -5 6 C-4.6875 4.125 -4.6875 4.125 -4 2 C-1 0 -1 0 0 0 Z " fill="#D8603B" transform="translate(121,295)"/>
<path d="M0 0 C0 1.65 0 3.3 0 5 C-1.65 5.33 -3.3 5.66 -5 6 C-4.6875 4.125 -4.6875 4.125 -4 2 C-1 0 -1 0 0 0 Z " fill="#D8603B" transform="translate(270,293)"/>
<path d="M0 0 C1.04449911 3.13349732 0.93423645 3.98968256 0 7 C-0.99 6.67 -1.98 6.34 -3 6 C-2.42655063 3.13275314 -2.1385485 2.1385485 0 0 Z " fill="#E02949" transform="translate(136,275)"/>
<path d="M0 0 C1.04449911 3.13349732 0.93423645 3.98968256 0 7 C-0.99 6.67 -1.98 6.34 -3 6 C-2.42655063 3.13275314 -2.1385485 2.1385485 0 0 Z " fill="#E02949" transform="translate(285,273)"/>
</svg>
